<svg width="159" height="28" viewBox="0 0 159 28" fill="none" xmlns="http://www.w3.org/2000/svg">
<path d="M2.36 11.88C2.88 11.48 3.14 10.82 3.14 9.9V5.88C3.14 4.26 3.63 2.98 4.61 2.04C5.61 1.08 7 0.599999 8.78 0.599999V3.48C7.9 3.48 7.27 3.66 6.89 4.02C6.53 4.38 6.35 5.01 6.35 5.91V9.93C6.35 11.63 5.75 12.97 4.55 13.95C5.75 14.93 6.35 16.26 6.35 17.94V21.99C6.35 22.89 6.53 23.52 6.89 23.88C7.27 24.24 7.9 24.42 8.78 24.42V27.3C7 27.3 5.61 26.82 4.61 25.86C3.63 24.92 3.14 23.64 3.14 22.02V17.97C3.14 17.07 2.88 16.42 2.36 16.02C1.84 15.6 1.22 15.39 0.5 15.39V12.51C1.22 12.51 1.84 12.3 2.36 11.88ZM69.3484 20.7C69.7484 20.3 70.2384 20.1 70.8184 20.1C71.3784 20.1 71.8584 20.31 72.2584 20.73C72.6584 21.13 72.8584 21.62 72.8584 22.2C72.8584 22.76 72.6584 23.25 72.2584 23.67C71.8584 24.07 71.3784 24.27 70.8184 24.27C70.2384 24.27 69.7384 24.07 69.3184 23.67C68.9184 23.27 68.7184 22.78 68.7184 22.2C68.7184 21.62 68.9284 21.12 69.3484 20.7ZM150.222 24.42C151.102 24.42 151.732 24.24 152.112 23.88C152.492 23.52 152.682 22.89 152.682 21.99V17.94C152.682 16.24 153.282 14.91 154.482 13.95C153.282 12.99 152.682 11.65 152.682 9.93V5.91C152.682 5.01 152.492 4.38 152.112 4.02C151.732 3.66 151.102 3.48 150.222 3.48V0.599999C152.002 0.599999 153.392 1.08 154.392 2.04C155.392 2.98 155.892 4.26 155.892 5.88V9.9C155.892 10.82 156.142 11.49 156.642 11.91C157.162 12.31 157.782 12.51 158.502 12.51V15.39C157.782 15.39 157.162 15.6 156.642 16.02C156.142 16.42 155.892 17.07 155.892 17.97V22.02C155.892 23.64 155.392 24.92 154.392 25.86C153.392 26.82 152.002 27.3 150.222 27.3V24.42Z" fill="#8257E5"/>
<path d="M12.7904 9.75C14.3304 8.09 16.1904 7.26 18.3704 7.26C19.5704 7.26 20.6804 7.57 21.7004 8.19C22.7404 8.79 23.5004 9.56 23.9804 10.5V0.599999H27.5504V24H24.2804L24.0704 20.91C23.5704 21.87 22.8004 22.66 21.7604 23.28C20.7204 23.9 19.5904 24.21 18.3704 24.21C16.1904 24.21 14.3204 23.38 12.7604 21.72C11.2204 20.06 10.4504 18.07 10.4504 15.75C10.4504 13.41 11.2304 11.41 12.7904 9.75ZM15.5204 19.23C16.4804 20.21 17.6404 20.7 19.0004 20.7C20.3804 20.7 21.5504 20.22 22.5104 19.26C23.4904 18.28 23.9804 17.11 23.9804 15.75C23.9804 14.37 23.4904 13.2 22.5104 12.24C21.5504 11.26 20.3804 10.77 19.0004 10.77C17.6404 10.77 16.4804 11.26 15.5204 12.24C14.5604 13.2 14.0804 14.37 14.0804 15.75C14.0804 17.11 14.5604 18.27 15.5204 19.23ZM32.888 9.75C34.428 8.09 36.288 7.26 38.468 7.26C39.688 7.26 40.818 7.58 41.858 8.22C42.898 8.84 43.668 9.64 44.168 10.62L44.378 7.5H47.648V24H44.378L44.168 20.91C43.668 21.87 42.898 22.66 41.858 23.28C40.818 23.9 39.688 24.21 38.468 24.21C36.288 24.21 34.418 23.38 32.858 21.72C31.318 20.06 30.548 18.07 30.548 15.75C30.548 13.41 31.328 11.41 32.888 9.75ZM35.618 19.23C36.578 20.21 37.738 20.7 39.098 20.7C40.478 20.7 41.648 20.22 42.608 19.26C43.588 18.28 44.078 17.11 44.078 15.75C44.078 14.37 43.588 13.2 42.608 12.24C41.648 11.26 40.478 10.77 39.098 10.77C37.738 10.77 36.578 11.26 35.618 12.24C34.658 13.2 34.178 14.37 34.178 15.75C34.178 17.11 34.658 18.27 35.618 19.23ZM50.1957 7.5H54.4557L58.7157 13.02L62.9457 7.5H67.1757L61.1457 15.75L67.1757 24H62.9457L58.7157 18.48L54.4557 24H50.1957L56.2557 15.75L50.1957 7.5ZM77.3056 9.75C78.9456 8.11 80.9456 7.29 83.3056 7.29C84.6856 7.29 85.9856 7.61 87.2056 8.25C88.4256 8.89 89.4356 9.76 90.2356 10.86L87.2656 12.84C86.2856 11.56 84.9656 10.92 83.3056 10.92C81.9456 10.92 80.7956 11.39 79.8556 12.33C78.9156 13.27 78.4456 14.41 78.4456 15.75C78.4456 17.11 78.9156 18.26 79.8556 19.2C80.7956 20.14 81.9456 20.61 83.3056 20.61C85.0256 20.61 86.3756 19.91 87.3556 18.51L90.2956 20.49C89.5356 21.65 88.5356 22.57 87.2956 23.25C86.0556 23.91 84.7256 24.24 83.3056 24.24C80.9456 24.24 78.9356 23.41 77.2756 21.75C75.6356 20.09 74.8156 18.09 74.8156 15.75C74.8156 13.41 75.6456 11.41 77.3056 9.75ZM94.8252 9.75C96.4652 8.11 98.4652 7.29 100.825 7.29C103.145 7.29 105.135 8.12 106.795 9.78C108.455 11.44 109.285 13.43 109.285 15.75C109.285 18.09 108.455 20.09 106.795 21.75C105.135 23.41 103.145 24.24 100.825 24.24C98.4652 24.24 96.4552 23.41 94.7952 21.75C93.1552 20.09 92.3352 18.09 92.3352 15.75C92.3352 13.41 93.1652 11.41 94.8252 9.75ZM95.9652 15.75C95.9652 17.11 96.4352 18.26 97.3752 19.2C98.3152 20.14 99.4652 20.61 100.825 20.61C102.165 20.61 103.305 20.14 104.245 19.2C105.185 18.24 105.655 17.09 105.655 15.75C105.655 14.41 105.185 13.27 104.245 12.33C103.305 11.39 102.165 10.92 100.825 10.92C99.4652 10.92 98.3152 11.39 97.3752 12.33C96.4352 13.27 95.9652 14.41 95.9652 15.75ZM113.718 9.75C115.258 8.09 117.118 7.26 119.298 7.26C120.498 7.26 121.608 7.57 122.628 8.19C123.668 8.79 124.428 9.56 124.908 10.5V0.599999H128.478V24H125.208L124.998 20.91C124.498 21.87 123.728 22.66 122.688 23.28C121.648 23.9 120.518 24.21 119.298 24.21C117.118 24.21 115.248 23.38 113.688 21.72C112.148 20.06 111.378 18.07 111.378 15.75C111.378 13.41 112.158 11.41 113.718 9.75ZM116.448 19.23C117.408 20.21 118.568 20.7 119.928 20.7C121.308 20.7 122.478 20.22 123.438 19.26C124.418 18.28 124.908 17.11 124.908 15.75C124.908 14.37 124.418 13.2 123.438 12.24C122.478 11.26 121.308 10.77 119.928 10.77C118.568 10.77 117.408 11.26 116.448 12.24C115.488 13.2 115.008 14.37 115.008 15.75C115.008 17.11 115.488 18.27 116.448 19.23ZM133.936 9.78C135.576 8.12 137.556 7.29 139.876 7.29C142.236 7.29 144.226 8.12 145.846 9.78C147.466 11.42 148.276 13.41 148.276 15.75C148.276 15.81 148.246 16.32 148.186 17.28H135.316C135.536 18.32 136.106 19.19 137.026 19.89C137.946 20.57 139.026 20.91 140.266 20.91C142.046 20.91 143.476 20.31 144.556 19.11L147.406 20.91C146.626 21.93 145.586 22.74 144.286 23.34C142.986 23.94 141.646 24.24 140.266 24.24C137.766 24.24 135.676 23.42 133.996 21.78C132.316 20.12 131.476 18.11 131.476 15.75C131.476 13.43 132.296 11.44 133.936 9.78ZM135.316 14.4H144.586C144.486 13.34 143.996 12.45 143.116 11.73C142.256 10.99 141.186 10.62 139.906 10.62C138.666 10.62 137.616 10.99 136.756 11.73C135.896 12.47 135.416 13.36 135.316 14.4Z" fill="#FFFFFF"/>
</svg>
